<svg height='100px' width='100px'  fill="#FFFFFF" xmlns="http://www.w3.org/2000/svg" viewBox="0 0 24 24" x="0px" y="0px"><title>Artboard 11</title><g data-name="Layer 31"><path d="M21,4H19V3a1,1,0,0,0-2,0V4H7V3A1,1,0,0,0,5,3V4H3A1,1,0,0,0,2,5V21a1,1,0,0,0,1,1H21a1,1,0,0,0,1-1V5A1,1,0,0,0,21,4ZM20,20H4V10H20ZM20,8H4V6H20Z"></path><path d="M11.29,18.71a1,1,0,0,0,.33.21.94.94,0,0,0,.76,0,1,1,0,0,0,.33-.21l2-2a1,1,0,0,0-1.42-1.42l-.29.3V12a1,1,0,0,0-2,0v3.59l-.29-.3a1,1,0,0,0-1.42,1.42Z"></path></g></svg>