<svg height='100px' width='100px'  fill="#FFFFFF" xmlns="http://www.w3.org/2000/svg" viewBox="0 0 24 24" x="0px" y="0px"><title>Artboard 10</title><g data-name="Layer 32"><path d="M21,4H19V3a1,1,0,0,0-2,0V4H7V3A1,1,0,0,0,5,3V4H3A1,1,0,0,0,2,5V21a1,1,0,0,0,1,1H21a1,1,0,0,0,1-1V5A1,1,0,0,0,21,4ZM20,6V8H4V6ZM4,20V10H20V20Z"></path><path d="M12.71,11.29a1,1,0,0,0-.33-.21,1,1,0,0,0-.76,0,1,1,0,0,0-.33.21l-2,2a1,1,0,0,0,1.42,1.42l.29-.3V18a1,1,0,0,0,2,0V14.41l.29.3a1,1,0,0,0,1.42,0,1,1,0,0,0,0-1.42Z"></path></g></svg>